<svg width="337" height="68" viewBox="0 0 337 68" fill="none" xmlns="http://www.w3.org/2000/svg">
<path d="M16.326 10.656C14.598 10.656 12.87 11.52 11.142 13.248V57.696L11.526 66.72C9.35 67.04 7.206 67.2 5.094 67.2C4.07 67.2 3.558 66.656 3.558 65.568V13.632C3.558 12.224 3.302 11.232 2.79 10.656C2.278 10.016 1.35 9.696 0.006 9.696C-0.058 8.032 0.39 6.72 1.35 5.76C2.31 4.8 3.846 4.32 5.958 4.32C8.07 4.32 9.574 5.376 10.47 7.488C12.966 5.376 15.526 4.32 18.15 4.32C22.054 4.32 24.742 5.536 26.214 7.968C28.838 5.536 31.59 4.32 34.47 4.32C40.806 4.32 43.974 7.456 43.974 13.728V58.56C43.974 59.904 44.23 60.864 44.742 61.44C45.318 61.952 46.278 62.208 47.622 62.208C47.622 65.856 45.574 67.68 41.478 67.68C38.086 67.68 36.39 65.472 36.39 61.056V14.304C36.39 11.872 35.142 10.656 32.646 10.656C30.662 10.656 28.998 11.456 27.654 13.056V57.696L28.038 66.72C25.862 67.04 23.718 67.2 21.606 67.2C20.582 67.2 20.07 66.656 20.07 65.568V14.304C20.07 11.872 18.822 10.656 16.326 10.656Z" fill="#FF6C6C"/>
<path d="M52.893 57.888V28.896C52.893 25.696 53.885 23.2 55.869 21.408C57.853 19.616 60.541 18.72 63.933 18.72C67.325 18.72 69.949 19.552 71.805 21.216C73.725 22.88 74.685 25.312 74.685 28.512V57.504C74.685 60.704 73.661 63.2 71.613 64.992C69.629 66.784 66.941 67.68 63.549 67.68C60.157 67.68 57.533 66.848 55.677 65.184C53.821 63.52 52.893 61.088 52.893 57.888ZM60.093 28.512V57.888C60.093 58.976 60.445 59.904 61.149 60.672C61.853 61.376 62.717 61.728 63.741 61.728C64.829 61.728 65.725 61.376 66.429 60.672C67.133 59.904 67.485 58.976 67.485 57.888V28.512C67.485 27.424 67.133 26.528 66.429 25.824C65.725 25.056 64.829 24.672 63.741 24.672C62.717 24.672 61.853 25.056 61.149 25.824C60.445 26.528 60.093 27.424 60.093 28.512Z" fill="#FF6C6C"/>
<path d="M84.9585 18.72C86.7505 18.72 88.0305 19.232 88.7985 20.256C89.6305 21.28 90.0465 23.584 90.0465 27.168C90.0465 30.688 90.4945 36 91.3905 43.104C92.2865 50.208 93.2785 56.032 94.3665 60.576C97.3105 47.456 98.7825 35.84 98.7825 25.728L98.5905 19.488C99.8065 19.232 100.959 19.104 102.047 19.104C103.199 19.104 104.222 19.232 105.118 19.488C106.078 19.744 106.558 20.384 106.558 21.408C106.558 26.848 105.918 33.888 104.638 42.528C103.358 51.168 101.918 58.08 100.318 63.264C99.6145 65.568 98.4625 66.72 96.8625 66.72H91.1985C89.5985 66.72 88.4465 65.568 87.7425 63.264C86.3345 58.4 85.1505 52.448 84.1905 45.408C83.2945 38.304 82.8465 32.384 82.8465 27.648C82.8465 26.304 82.5905 25.344 82.0785 24.768C81.6305 24.192 80.7345 23.904 79.3905 23.904C79.3265 22.304 79.7745 21.056 80.7345 20.16C81.7585 19.2 83.1665 18.72 84.9585 18.72Z" fill="#FF6C6C"/>
<path d="M118.25 10.944C115.498 10.944 114.122 9.12 114.122 5.472C114.122 1.824 115.498 0 118.25 0C121.002 0 122.378 1.824 122.378 5.472C122.378 9.12 121.002 10.944 118.25 10.944ZM112.298 19.68H121.898V58.752C121.898 60.096 122.122 61.056 122.57 61.632C123.082 62.208 124.01 62.496 125.354 62.496C125.418 64.16 124.97 65.44 124.01 66.336C123.114 67.232 121.77 67.68 119.978 67.68C118.186 67.68 116.842 67.136 115.946 66.048C115.114 64.96 114.698 63.168 114.698 60.672V25.44L111.722 25.92C111.274 24.256 111.049 22.816 111.049 21.6C111.049 20.32 111.466 19.68 112.298 19.68Z" fill="#FF6C6C"/>
<path d="M145.906 28.992C145.906 27.712 145.522 26.72 144.754 26.016C143.986 25.248 143.026 24.864 141.874 24.864C139.506 24.864 138.322 25.856 138.322 27.84V41.568L142.93 38.112C144.914 36.64 145.906 33.6 145.906 28.992ZM131.122 58.176V28.128C131.122 21.856 134.802 18.72 142.162 18.72C149.586 18.72 153.298 22.24 153.298 29.28C153.298 32.096 152.786 34.688 151.762 37.056C150.738 39.424 149.33 41.216 147.538 42.432L138.322 48.768V57.504C138.322 60.192 139.57 61.536 142.066 61.536C144.626 61.536 145.906 60.032 145.906 57.024V54.816L145.618 50.304C146.45 50.112 147.282 50.016 148.114 50.016C149.01 50.016 149.842 50.144 150.61 50.4C152.146 50.784 152.914 51.52 152.914 52.608V59.52C152.914 62.08 151.89 64.096 149.842 65.568C147.858 66.976 145.202 67.68 141.874 67.68C134.706 67.68 131.122 64.512 131.122 58.176Z" fill="#FF6C6C"/>
<path d="M172.032 65.848V13.912C172.032 12.504 171.776 11.512 171.264 10.936C170.752 10.296 169.824 9.97601 168.48 9.97601C168.416 8.31201 168.864 7.00001 169.824 6.04001C170.784 5.08001 172.32 4.60001 174.432 4.60001C176.544 4.60001 178.048 5.65601 178.944 7.76801C181.44 5.65601 184 4.60001 186.624 4.60001C192.96 4.60001 196.128 7.73601 196.128 14.008V36.28C196.128 40.312 194.432 43.192 191.04 44.92L193.056 57.784C193.376 59.832 194.368 60.856 196.032 60.856C196.544 60.856 197.152 60.728 197.856 60.472C198.112 61.24 198.24 62.168 198.24 63.256C198.24 64.28 197.696 65.336 196.608 66.424C195.584 67.448 194.24 67.96 192.576 67.96C188.8 67.96 186.656 66.328 186.144 63.064L183.36 46.456H179.616V57.976L180 67C177.824 67.32 175.68 67.48 173.568 67.48C172.544 67.48 172.032 66.936 172.032 65.848ZM184.8 10.936C183.072 10.936 181.344 11.8 179.616 13.528V40.12H184.032C185.376 40.12 186.464 39.8 187.296 39.16C188.128 38.456 188.544 37.496 188.544 36.28V14.584C188.544 12.152 187.296 10.936 184.8 10.936Z" fill="white"/>
<path d="M219.557 29.272C219.557 27.992 219.173 27 218.405 26.296C217.637 25.528 216.677 25.144 215.525 25.144C213.157 25.144 211.973 26.136 211.973 28.12V41.848L216.581 38.392C218.565 36.92 219.557 33.88 219.557 29.272ZM204.773 58.456V28.408C204.773 22.136 208.453 19 215.813 19C223.237 19 226.949 22.52 226.949 29.56C226.949 32.376 226.437 34.968 225.413 37.336C224.389 39.704 222.981 41.496 221.189 42.712L211.973 49.048V57.784C211.973 60.472 213.221 61.816 215.717 61.816C218.277 61.816 219.557 60.312 219.557 57.304V55.096L219.269 50.584C220.101 50.392 220.933 50.296 221.765 50.296C222.661 50.296 223.493 50.424 224.261 50.68C225.797 51.064 226.565 51.8 226.565 52.888V59.8C226.565 62.36 225.541 64.376 223.493 65.848C221.509 67.256 218.853 67.96 215.525 67.96C208.357 67.96 204.773 64.792 204.773 58.456Z" fill="white"/>
<path d="M242.42 59.128C242.42 62.264 242.644 64.888 243.092 67C241.172 67.256 239.092 67.384 236.852 67.384C235.764 67.384 235.22 66.904 235.22 65.944V27.928C235.22 26.584 234.964 25.624 234.452 25.048C234.004 24.472 233.108 24.184 231.764 24.184C231.7 22.52 232.116 21.24 233.012 20.344C233.972 19.448 235.476 19 237.524 19C239.572 19 241.044 19.992 241.94 21.976C244.052 19.992 246.324 19 248.756 19C251.252 19 253.236 19.8 254.708 21.4C256.244 23 257.012 25.272 257.012 28.216V59.032C257.012 60.376 257.236 61.336 257.684 61.912C258.196 62.488 259.124 62.776 260.468 62.776C260.532 64.44 260.084 65.72 259.124 66.616C258.228 67.512 256.884 67.96 255.092 67.96C253.3 67.96 251.956 67.416 251.06 66.328C250.228 65.24 249.812 63.448 249.812 60.952V28.792C249.812 26.68 248.724 25.624 246.548 25.624C244.756 25.624 243.38 26.616 242.42 28.6V59.128Z" fill="white"/>
<path d="M288.647 59.608C288.647 62.296 287.623 64.376 285.575 65.848C283.527 67.256 280.903 67.96 277.702 67.96C274.566 67.96 272.038 67.16 270.118 65.56C268.262 63.896 267.335 61.688 267.335 58.936V25.72L264.359 26.2C263.911 24.536 263.687 23.096 263.687 21.88C263.687 20.6 264.103 19.96 264.935 19.96H267.527L268.87 10.936C269.126 9.52801 270.311 8.82401 272.423 8.82401C273.063 8.82401 273.766 8.88801 274.535 9.01601V19.96H282.887L287.879 19.48C288.199 21.144 288.359 22.616 288.359 23.896C288.359 25.112 287.943 25.72 287.111 25.72H274.535V57.784C274.535 59.128 274.854 60.184 275.494 60.952C276.198 61.656 277.063 62.008 278.087 62.008C280.455 62.008 281.639 60.44 281.639 57.304V50.296L281.351 45.784C282.183 45.592 283.015 45.496 283.847 45.496C284.743 45.496 285.574 45.624 286.342 45.88C287.878 46.264 288.647 47 288.647 48.088V59.608Z" fill="white"/>
<path d="M304.698 49.432C302.586 50.84 301.53 53.208 301.53 56.536C301.53 59.8 302.522 61.432 304.506 61.432C306.554 61.432 308.154 60.28 309.306 57.976V46.36L304.698 49.432ZM305.754 19C312.922 19 316.506 22.168 316.506 28.504V59.032C316.506 60.376 316.73 61.336 317.178 61.912C317.69 62.488 318.618 62.776 319.962 62.776C320.026 64.44 319.578 65.72 318.618 66.616C317.722 67.512 316.41 67.96 314.682 67.96C311.994 67.96 310.362 66.968 309.786 64.984C307.802 66.968 305.466 67.96 302.778 67.96C300.09 67.96 297.946 66.936 296.346 64.888C294.746 62.84 293.946 60.088 293.946 56.632C293.946 51.384 296.154 47.416 300.57 44.728L309.306 39.544V29.176C309.306 26.488 308.026 25.144 305.466 25.144C302.97 25.144 301.722 26.648 301.722 29.656V32.824L302.01 37.336C301.178 37.528 300.314 37.624 299.418 37.624C298.586 37.624 297.786 37.496 297.018 37.24C295.482 36.856 294.714 36.12 294.714 35.032V27.16C294.714 24.6 295.706 22.616 297.69 21.208C299.738 19.736 302.426 19 305.754 19Z" fill="white"/>
<path d="M325.808 7.48001C325.808 6.00801 325.52 4.05601 324.944 1.62401C326.864 0.600012 328.912 0.0880127 331.088 0.0880127C332.368 0.0880127 333.008 0.568012 333.008 1.52801V59.032C333.008 60.376 333.232 61.336 333.68 61.912C334.192 62.488 335.12 62.776 336.464 62.776C336.528 64.44 336.08 65.72 335.12 66.616C334.224 67.512 332.88 67.96 331.088 67.96C329.296 67.96 327.952 67.416 327.056 66.328C326.224 65.24 325.808 63.448 325.808 60.952V7.48001Z" fill="white"/>
</svg>
